<?xml version="1.0" encoding="UTF-8"?><svg id="_圖層_1" xmlns="http://www.w3.org/2000/svg" viewBox="0 0 89 89"><defs><style>.cls-1{fill:#fff;}</style></defs><path class="cls-1" d="M44.92,48.39c7.09-.03,12.86-5.85,12.85-12.97-.01-7.15-5.84-12.96-12.99-12.93-7.09.03-12.87,5.87-12.86,12.97.02,7.15,5.86,12.96,13,12.93Z"/><path class="cls-1" d="M82.64,81.41c-.81-1.81-2.3-2.41-4.22-2.41-19.45.02-38.89.01-58.34.01-.32,0-.65,0-.97,0-2.27-.11-4.22-1.57-4.9-3.68-.68-2.09.02-4.37,1.76-5.78,1.16-.94,2.51-1.16,3.96-1.16,19.48.01,38.95,0,58.43,0,2.98,0,4.59-1.51,4.59-4.33,0-19.24,0-38.47,0-57.71,0-2.72-1.62-4.32-4.34-4.32-19.74,0-39.48,0-59.22,0-.9,0-1.83.08-2.71.26-6.37,1.31-10.66,6.58-10.67,13.15-.03,9.66,0,19.32,0,28.99,0,9.54,0,19.09,0,28.63,0,.85,0,1.71.13,2.55,1.12,6.78,6.53,11.34,13.4,11.35,19.65,0,39.3,0,58.95,0,.23,0,.47,0,.7,0,2.78-.17,4.56-3.03,3.43-5.56ZM20.85,32.77c1.56-.23,3.1-.47,4.64-.67.89-.11,1.36-.59,1.66-1.41.54-1.46,1.12-2.91,1.79-4.31.41-.87.42-1.59-.19-2.36-.94-1.2-1.84-2.43-2.72-3.59,1.27-1.27,2.49-2.49,3.81-3.81,1.11.84,2.34,1.72,3.52,2.67.83.67,1.6.64,2.53.18,1.3-.64,2.66-1.2,4.04-1.66,1.01-.34,1.52-.92,1.64-1.95.13-1.22.33-2.42.46-3.64.07-.62.31-.87.97-.85,1.46.05,2.92.01,4.51.01.21,1.41.49,2.76.58,4.13.1,1.36.72,2.02,2.03,2.4,1.32.38,2.58,1.02,3.83,1.63.83.41,1.54.4,2.27-.17,1.21-.94,2.43-1.85,3.55-2.7,1.27,1.27,2.51,2.51,3.83,3.83-.76,1.01-1.6,2.2-2.52,3.32-.72.88-.78,1.67-.25,2.7.65,1.26,1.17,2.6,1.63,3.94.33.97.83,1.56,1.91,1.67,1.48.15,2.95.41,4.48.63v5.36c-1.57.22-3.11.46-4.65.66-.89.11-1.35.59-1.66,1.41-.55,1.49-1.15,2.97-1.83,4.41-.4.85-.33,1.54.23,2.26.94,1.2,1.84,2.43,2.7,3.58-1.28,1.28-2.5,2.5-3.82,3.81-1.06-.8-2.27-1.66-3.43-2.59-.85-.69-1.63-.73-2.62-.24-1.33.66-2.73,1.2-4.13,1.69-.92.32-1.41.87-1.52,1.82-.15,1.28-.35,2.56-.5,3.84-.06.52-.27.76-.84.75-1.29-.04-2.58-.04-3.87,0-.62.02-.83-.25-.9-.81-.13-1.18-.33-2.36-.45-3.54-.11-1.11-.61-1.75-1.72-2.11-1.38-.44-2.73-1.03-4.03-1.67-.9-.45-1.64-.45-2.44.18-1.17.93-2.38,1.81-3.58,2.71-1.29-1.29-2.51-2.51-3.81-3.81.85-1.13,1.72-2.34,2.65-3.5.65-.82.71-1.58.25-2.53-.66-1.33-1.24-2.72-1.72-4.12-.33-.96-.85-1.46-1.86-1.57-1.48-.16-2.95-.42-4.48-.64v-5.34Z"/></svg>